<mxfile host="app.diagrams.net" modified="2024-03-30T16:27:24.614Z" agent="Mozilla/5.0 (Windows NT 10.0; Win64; x64) AppleWebKit/537.36 (KHTML, like Gecko) Chrome/123.0.0.0 Safari/537.36" etag="5EoCvSnunxICPbx90V9I" version="24.2.1" type="device">
  <diagram name="Page-1" id="9sHMZXCgfy9XCe2Kyyqa">
    <mxGraphModel dx="1750" dy="928" grid="1" gridSize="10" guides="1" tooltips="1" connect="1" arrows="1" fold="1" page="1" pageScale="1" pageWidth="827" pageHeight="1169" math="0" shadow="0">
      <root>
        <mxCell id="0" />
        <mxCell id="1" parent="0" />
        <mxCell id="27NNxv7r9fU8YgLo5ocL-1" value="Student" style="rounded=0;whiteSpace=wrap;html=1;" vertex="1" parent="1">
          <mxGeometry x="220" y="270" width="120" height="60" as="geometry" />
        </mxCell>
        <mxCell id="27NNxv7r9fU8YgLo5ocL-2" value="Username" style="ellipse;whiteSpace=wrap;html=1;" vertex="1" parent="1">
          <mxGeometry x="220" y="140" width="120" height="60" as="geometry" />
        </mxCell>
        <mxCell id="27NNxv7r9fU8YgLo5ocL-3" value="Email" style="ellipse;whiteSpace=wrap;html=1;" vertex="1" parent="1">
          <mxGeometry x="414" y="270" width="120" height="60" as="geometry" />
        </mxCell>
        <mxCell id="27NNxv7r9fU8YgLo5ocL-4" value="Password" style="ellipse;whiteSpace=wrap;html=1;" vertex="1" parent="1">
          <mxGeometry x="30" y="270" width="120" height="60" as="geometry" />
        </mxCell>
        <mxCell id="27NNxv7r9fU8YgLo5ocL-5" value="Participates" style="rhombus;whiteSpace=wrap;html=1;" vertex="1" parent="1">
          <mxGeometry x="220" y="400" width="120" height="80" as="geometry" />
        </mxCell>
        <mxCell id="27NNxv7r9fU8YgLo5ocL-6" value="" style="endArrow=none;html=1;rounded=0;entryX=0.5;entryY=1;entryDx=0;entryDy=0;exitX=0.5;exitY=0;exitDx=0;exitDy=0;" edge="1" parent="1" source="27NNxv7r9fU8YgLo5ocL-1" target="27NNxv7r9fU8YgLo5ocL-2">
          <mxGeometry width="50" height="50" relative="1" as="geometry">
            <mxPoint x="340" y="330" as="sourcePoint" />
            <mxPoint x="390" y="280" as="targetPoint" />
          </mxGeometry>
        </mxCell>
        <mxCell id="27NNxv7r9fU8YgLo5ocL-7" value="" style="endArrow=none;html=1;rounded=0;exitX=1;exitY=0.5;exitDx=0;exitDy=0;entryX=0;entryY=0.5;entryDx=0;entryDy=0;" edge="1" parent="1" source="27NNxv7r9fU8YgLo5ocL-1" target="27NNxv7r9fU8YgLo5ocL-3">
          <mxGeometry width="50" height="50" relative="1" as="geometry">
            <mxPoint x="340" y="330" as="sourcePoint" />
            <mxPoint x="390" y="280" as="targetPoint" />
          </mxGeometry>
        </mxCell>
        <mxCell id="27NNxv7r9fU8YgLo5ocL-8" value="" style="endArrow=none;html=1;rounded=0;exitX=1;exitY=0.5;exitDx=0;exitDy=0;entryX=0;entryY=0.5;entryDx=0;entryDy=0;" edge="1" parent="1" source="27NNxv7r9fU8YgLo5ocL-4" target="27NNxv7r9fU8YgLo5ocL-1">
          <mxGeometry width="50" height="50" relative="1" as="geometry">
            <mxPoint x="340" y="330" as="sourcePoint" />
            <mxPoint x="390" y="280" as="targetPoint" />
          </mxGeometry>
        </mxCell>
        <mxCell id="27NNxv7r9fU8YgLo5ocL-9" value="" style="endArrow=none;html=1;rounded=0;exitX=0.5;exitY=1;exitDx=0;exitDy=0;entryX=0.5;entryY=0;entryDx=0;entryDy=0;" edge="1" parent="1" source="27NNxv7r9fU8YgLo5ocL-1" target="27NNxv7r9fU8YgLo5ocL-5">
          <mxGeometry width="50" height="50" relative="1" as="geometry">
            <mxPoint x="340" y="330" as="sourcePoint" />
            <mxPoint x="390" y="280" as="targetPoint" />
          </mxGeometry>
        </mxCell>
        <mxCell id="27NNxv7r9fU8YgLo5ocL-10" value="Course" style="rounded=0;whiteSpace=wrap;html=1;" vertex="1" parent="1">
          <mxGeometry x="220" y="554.5" width="120" height="60" as="geometry" />
        </mxCell>
        <mxCell id="27NNxv7r9fU8YgLo5ocL-12" value="Description" style="ellipse;whiteSpace=wrap;html=1;" vertex="1" parent="1">
          <mxGeometry x="220" y="680" width="120" height="60" as="geometry" />
        </mxCell>
        <mxCell id="27NNxv7r9fU8YgLo5ocL-13" value="Name" style="ellipse;whiteSpace=wrap;html=1;" vertex="1" parent="1">
          <mxGeometry x="30" y="554.5" width="120" height="60" as="geometry" />
        </mxCell>
        <mxCell id="27NNxv7r9fU8YgLo5ocL-14" value="" style="endArrow=none;html=1;rounded=0;entryX=0.5;entryY=1;entryDx=0;entryDy=0;exitX=0.5;exitY=0;exitDx=0;exitDy=0;" edge="1" parent="1" source="27NNxv7r9fU8YgLo5ocL-10" target="27NNxv7r9fU8YgLo5ocL-5">
          <mxGeometry width="50" height="50" relative="1" as="geometry">
            <mxPoint x="338" y="610" as="sourcePoint" />
            <mxPoint x="278" y="480" as="targetPoint" />
          </mxGeometry>
        </mxCell>
        <mxCell id="27NNxv7r9fU8YgLo5ocL-15" value="" style="endArrow=none;html=1;rounded=0;exitX=0.5;exitY=1;exitDx=0;exitDy=0;entryX=0.5;entryY=0;entryDx=0;entryDy=0;" edge="1" parent="1" source="27NNxv7r9fU8YgLo5ocL-10" target="27NNxv7r9fU8YgLo5ocL-12">
          <mxGeometry width="50" height="50" relative="1" as="geometry">
            <mxPoint x="340" y="614.5" as="sourcePoint" />
            <mxPoint x="390" y="564.5" as="targetPoint" />
          </mxGeometry>
        </mxCell>
        <mxCell id="27NNxv7r9fU8YgLo5ocL-16" value="" style="endArrow=none;html=1;rounded=0;exitX=1;exitY=0.5;exitDx=0;exitDy=0;entryX=0;entryY=0.5;entryDx=0;entryDy=0;" edge="1" parent="1" source="27NNxv7r9fU8YgLo5ocL-13" target="27NNxv7r9fU8YgLo5ocL-10">
          <mxGeometry width="50" height="50" relative="1" as="geometry">
            <mxPoint x="340" y="614.5" as="sourcePoint" />
            <mxPoint x="390" y="564.5" as="targetPoint" />
          </mxGeometry>
        </mxCell>
        <mxCell id="27NNxv7r9fU8YgLo5ocL-17" value="Has" style="rhombus;whiteSpace=wrap;html=1;" vertex="1" parent="1">
          <mxGeometry x="414" y="544" width="120" height="80" as="geometry" />
        </mxCell>
        <mxCell id="27NNxv7r9fU8YgLo5ocL-18" value="" style="endArrow=none;html=1;rounded=0;entryX=0;entryY=0.5;entryDx=0;entryDy=0;exitX=1;exitY=0.5;exitDx=0;exitDy=0;" edge="1" parent="1" target="27NNxv7r9fU8YgLo5ocL-17" source="27NNxv7r9fU8YgLo5ocL-10">
          <mxGeometry width="50" height="50" relative="1" as="geometry">
            <mxPoint x="420" y="550" as="sourcePoint" />
            <mxPoint x="568" y="587" as="targetPoint" />
          </mxGeometry>
        </mxCell>
        <mxCell id="27NNxv7r9fU8YgLo5ocL-19" value="&lt;div style=&quot;text-align: start;&quot;&gt;Chapter&lt;/div&gt;" style="rounded=0;whiteSpace=wrap;html=1;" vertex="1" parent="1">
          <mxGeometry x="610" y="554.5" width="120" height="60" as="geometry" />
        </mxCell>
        <mxCell id="27NNxv7r9fU8YgLo5ocL-20" value="Description" style="ellipse;whiteSpace=wrap;html=1;" vertex="1" parent="1">
          <mxGeometry x="610" y="680" width="120" height="60" as="geometry" />
        </mxCell>
        <mxCell id="27NNxv7r9fU8YgLo5ocL-22" value="" style="endArrow=none;html=1;rounded=0;exitX=0.5;exitY=1;exitDx=0;exitDy=0;entryX=0.5;entryY=0;entryDx=0;entryDy=0;" edge="1" parent="1" source="27NNxv7r9fU8YgLo5ocL-19" target="27NNxv7r9fU8YgLo5ocL-20">
          <mxGeometry width="50" height="50" relative="1" as="geometry">
            <mxPoint x="730" y="614.5" as="sourcePoint" />
            <mxPoint x="780" y="564.5" as="targetPoint" />
          </mxGeometry>
        </mxCell>
        <mxCell id="27NNxv7r9fU8YgLo5ocL-24" value="" style="endArrow=none;html=1;rounded=0;entryX=1;entryY=0.5;entryDx=0;entryDy=0;exitX=0;exitY=0.5;exitDx=0;exitDy=0;" edge="1" parent="1" source="27NNxv7r9fU8YgLo5ocL-19" target="27NNxv7r9fU8YgLo5ocL-17">
          <mxGeometry width="50" height="50" relative="1" as="geometry">
            <mxPoint x="350" y="595" as="sourcePoint" />
            <mxPoint x="424" y="594" as="targetPoint" />
          </mxGeometry>
        </mxCell>
        <mxCell id="27NNxv7r9fU8YgLo5ocL-25" value="Name" style="ellipse;whiteSpace=wrap;html=1;" vertex="1" parent="1">
          <mxGeometry x="610" y="420" width="120" height="60" as="geometry" />
        </mxCell>
        <mxCell id="27NNxv7r9fU8YgLo5ocL-26" value="" style="endArrow=none;html=1;rounded=0;entryX=0.5;entryY=0;entryDx=0;entryDy=0;exitX=0.5;exitY=1;exitDx=0;exitDy=0;" edge="1" parent="1" source="27NNxv7r9fU8YgLo5ocL-25" target="27NNxv7r9fU8YgLo5ocL-19">
          <mxGeometry width="50" height="50" relative="1" as="geometry">
            <mxPoint x="530" y="560" as="sourcePoint" />
            <mxPoint x="580" y="510" as="targetPoint" />
          </mxGeometry>
        </mxCell>
      </root>
    </mxGraphModel>
  </diagram>
</mxfile>
